<mxfile host="app.diagrams.net" modified="2023-09-12T12:35:08.164Z" agent="Mozilla/5.0 (X11; Linux x86_64) AppleWebKit/537.36 (KHTML, like Gecko) Chrome/116.0.0.0 Safari/537.36" etag="nXzYXYdOQWm7Agk9krQd" version="21.7.4" type="device">
  <diagram name="Página-1" id="tDDPF4G0pb4lXk7nFDdx">
    <mxGraphModel dx="880" dy="488" grid="1" gridSize="10" guides="1" tooltips="1" connect="1" arrows="1" fold="1" page="1" pageScale="1" pageWidth="827" pageHeight="1169" math="0" shadow="0">
      <root>
        <mxCell id="0" />
        <mxCell id="1" parent="0" />
        <mxCell id="E-_QDCQjYTuW6W1guJ58-5" value="Leitor" style="swimlane;fontStyle=1;align=center;verticalAlign=top;childLayout=stackLayout;horizontal=1;startSize=26;horizontalStack=0;resizeParent=1;resizeParentMax=0;resizeLast=0;collapsible=1;marginBottom=0;whiteSpace=wrap;html=1;" vertex="1" parent="1">
          <mxGeometry y="10" width="200" height="140" as="geometry" />
        </mxCell>
        <mxCell id="E-_QDCQjYTuW6W1guJ58-6" value="&lt;font style=&quot;font-size: 14px;&quot;&gt;Id: int&lt;br style=&quot;border-color: var(--border-color);&quot;&gt;nome:&amp;nbsp; String&lt;br style=&quot;border-color: var(--border-color);&quot;&gt;histórico: lista de ação&lt;/font&gt;" style="text;strokeColor=none;fillColor=none;align=left;verticalAlign=top;spacingLeft=4;spacingRight=4;overflow=hidden;rotatable=0;points=[[0,0.5],[1,0.5]];portConstraint=eastwest;whiteSpace=wrap;html=1;" vertex="1" parent="E-_QDCQjYTuW6W1guJ58-5">
          <mxGeometry y="26" width="200" height="64" as="geometry" />
        </mxCell>
        <mxCell id="E-_QDCQjYTuW6W1guJ58-7" value="" style="line;strokeWidth=1;fillColor=none;align=left;verticalAlign=middle;spacingTop=-1;spacingLeft=3;spacingRight=3;rotatable=0;labelPosition=right;points=[];portConstraint=eastwest;strokeColor=inherit;" vertex="1" parent="E-_QDCQjYTuW6W1guJ58-5">
          <mxGeometry y="90" width="200" height="8" as="geometry" />
        </mxCell>
        <mxCell id="E-_QDCQjYTuW6W1guJ58-8" value="&lt;span style=&quot;&quot;&gt;PegarLivros(livros: livros) void&lt;br&gt;DevolverLIvros(livros: livros) void&lt;br&gt;&lt;/span&gt;" style="text;strokeColor=none;fillColor=none;align=left;verticalAlign=top;spacingLeft=4;spacingRight=4;overflow=hidden;rotatable=0;points=[[0,0.5],[1,0.5]];portConstraint=eastwest;whiteSpace=wrap;html=1;" vertex="1" parent="E-_QDCQjYTuW6W1guJ58-5">
          <mxGeometry y="98" width="200" height="42" as="geometry" />
        </mxCell>
        <mxCell id="E-_QDCQjYTuW6W1guJ58-9" value="Ação" style="swimlane;fontStyle=1;align=center;verticalAlign=top;childLayout=stackLayout;horizontal=1;startSize=26;horizontalStack=0;resizeParent=1;resizeParentMax=0;resizeLast=0;collapsible=1;marginBottom=0;whiteSpace=wrap;html=1;" vertex="1" parent="1">
          <mxGeometry x="280" y="160" width="240" height="144" as="geometry" />
        </mxCell>
        <mxCell id="E-_QDCQjYTuW6W1guJ58-10" value="&lt;font style=&quot;font-size: 13px;&quot;&gt;Status: Enum (Empréstimo data: Data)&lt;br&gt;Data: Data&lt;br&gt;leitor: Referencia para Leitor&lt;br&gt;Livros: Referencia para Livros&lt;br&gt;&lt;/font&gt;" style="text;strokeColor=none;fillColor=none;align=left;verticalAlign=top;spacingLeft=4;spacingRight=4;overflow=hidden;rotatable=0;points=[[0,0.5],[1,0.5]];portConstraint=eastwest;whiteSpace=wrap;html=1;" vertex="1" parent="E-_QDCQjYTuW6W1guJ58-9">
          <mxGeometry y="26" width="240" height="84" as="geometry" />
        </mxCell>
        <mxCell id="E-_QDCQjYTuW6W1guJ58-11" value="" style="line;strokeWidth=1;fillColor=none;align=left;verticalAlign=middle;spacingTop=-1;spacingLeft=3;spacingRight=3;rotatable=0;labelPosition=right;points=[];portConstraint=eastwest;strokeColor=inherit;" vertex="1" parent="E-_QDCQjYTuW6W1guJ58-9">
          <mxGeometry y="110" width="240" height="8" as="geometry" />
        </mxCell>
        <mxCell id="E-_QDCQjYTuW6W1guJ58-12" value="+ method(type): type" style="text;strokeColor=none;fillColor=none;align=left;verticalAlign=top;spacingLeft=4;spacingRight=4;overflow=hidden;rotatable=0;points=[[0,0.5],[1,0.5]];portConstraint=eastwest;whiteSpace=wrap;html=1;" vertex="1" parent="E-_QDCQjYTuW6W1guJ58-9">
          <mxGeometry y="118" width="240" height="26" as="geometry" />
        </mxCell>
        <mxCell id="E-_QDCQjYTuW6W1guJ58-13" value="Livros" style="swimlane;fontStyle=1;align=center;verticalAlign=top;childLayout=stackLayout;horizontal=1;startSize=26;horizontalStack=0;resizeParent=1;resizeParentMax=0;resizeLast=0;collapsible=1;marginBottom=0;whiteSpace=wrap;html=1;" vertex="1" parent="1">
          <mxGeometry x="560" y="20" width="240" height="180" as="geometry" />
        </mxCell>
        <mxCell id="E-_QDCQjYTuW6W1guJ58-14" value="&lt;font style=&quot;font-size: 13px;&quot;&gt;Titulo: String&lt;br&gt;Autor: String&lt;br&gt;ISBN: String&lt;br&gt;status: Enum (Disponível, Emprestado)&amp;nbsp;&lt;br&gt;histórico: Lista de Ação&amp;nbsp;&lt;/font&gt;" style="text;strokeColor=none;fillColor=none;align=left;verticalAlign=top;spacingLeft=4;spacingRight=4;overflow=hidden;rotatable=0;points=[[0,0.5],[1,0.5]];portConstraint=eastwest;whiteSpace=wrap;html=1;" vertex="1" parent="E-_QDCQjYTuW6W1guJ58-13">
          <mxGeometry y="26" width="240" height="94" as="geometry" />
        </mxCell>
        <mxCell id="E-_QDCQjYTuW6W1guJ58-15" value="" style="line;strokeWidth=1;fillColor=none;align=left;verticalAlign=middle;spacingTop=-1;spacingLeft=3;spacingRight=3;rotatable=0;labelPosition=right;points=[];portConstraint=eastwest;strokeColor=inherit;" vertex="1" parent="E-_QDCQjYTuW6W1guJ58-13">
          <mxGeometry y="120" width="240" height="8" as="geometry" />
        </mxCell>
        <mxCell id="E-_QDCQjYTuW6W1guJ58-16" value="&lt;font style=&quot;font-size: 14px;&quot;&gt;serEmprestado()&lt;br&gt;serDevolvido()&lt;/font&gt;" style="text;strokeColor=none;fillColor=none;align=left;verticalAlign=top;spacingLeft=4;spacingRight=4;overflow=hidden;rotatable=0;points=[[0,0.5],[1,0.5]];portConstraint=eastwest;whiteSpace=wrap;html=1;" vertex="1" parent="E-_QDCQjYTuW6W1guJ58-13">
          <mxGeometry y="128" width="240" height="52" as="geometry" />
        </mxCell>
        <mxCell id="E-_QDCQjYTuW6W1guJ58-19" value="1" style="endArrow=open;html=1;endSize=12;startArrow=diamondThin;startSize=14;startFill=0;edgeStyle=orthogonalEdgeStyle;align=left;verticalAlign=bottom;rounded=0;exitX=0.41;exitY=1.024;exitDx=0;exitDy=0;exitPerimeter=0;entryX=0;entryY=0.5;entryDx=0;entryDy=0;" edge="1" parent="1" source="E-_QDCQjYTuW6W1guJ58-8" target="E-_QDCQjYTuW6W1guJ58-10">
          <mxGeometry x="-1" y="3" relative="1" as="geometry">
            <mxPoint x="50" y="200.01599999999996" as="sourcePoint" />
            <mxPoint x="240.1199999999999" y="285.996" as="targetPoint" />
          </mxGeometry>
        </mxCell>
        <mxCell id="E-_QDCQjYTuW6W1guJ58-20" value="1" style="endArrow=open;html=1;endSize=12;startArrow=diamondThin;startSize=14;startFill=0;edgeStyle=orthogonalEdgeStyle;align=left;verticalAlign=bottom;rounded=0;exitX=0.504;exitY=1.019;exitDx=0;exitDy=0;exitPerimeter=0;entryX=1;entryY=0.5;entryDx=0;entryDy=0;" edge="1" parent="1" source="E-_QDCQjYTuW6W1guJ58-16" target="E-_QDCQjYTuW6W1guJ58-10">
          <mxGeometry x="-1" y="3" relative="1" as="geometry">
            <mxPoint x="590" y="280" as="sourcePoint" />
            <mxPoint x="750" y="280" as="targetPoint" />
          </mxGeometry>
        </mxCell>
      </root>
    </mxGraphModel>
  </diagram>
</mxfile>
